<?xml version="1.0" encoding="iso-8859-1"?>
<!-- Generator: Adobe Illustrator 21.0.0, SVG Export Plug-In . SVG Version: 6.00 Build 0)  -->
<svg version="1.1" id="Capa_1" xmlns="http://www.w3.org/2000/svg" xmlns:xlink="http://www.w3.org/1999/xlink" x="0px" y="0px"
	 viewBox="0 0 512 512" style="enable-background:new 0 0 512 512;" xml:space="preserve">
<path style="fill:#FFB13B;" d="M316.491,196.909h-46.533H124.103H77.57c-39.775,0-72.02,32.244-72.02,72.02v125.133h382.961V268.929
	C388.511,229.153,356.267,196.909,316.491,196.909z"/>
<path style="fill:#FF9500;" d="M316.491,196.909h-46.533H197.03v197.153h191.48V268.929
	C388.511,229.153,356.267,196.909,316.491,196.909z"/>
<path style="fill:#FFE733;" d="M197.031,231.146L197.031,231.146c-52.352,0-94.792-42.44-94.792-94.792V94.792
	C102.239,42.44,144.678,0,197.031,0l0,0c52.352,0,94.792,42.44,94.792,94.792v41.562
	C291.823,188.706,249.383,231.146,197.031,231.146z"/>
<path style="fill:#FFDA45;" d="M197.031,231.146L197.031,231.146c0-93.927,0-134.73,0-231.146l0,0
	c52.352,0,94.792,42.44,94.792,94.792v41.562C291.823,188.706,249.383,231.146,197.031,231.146z"/>
<circle style="fill:#4A7AFF;" cx="388.51" cy="394.06" r="117.94"/>
<polygon style="fill:#F2F6FC;" points="440.637,379.062 403.511,379.062 403.511,341.936 373.511,341.936 373.511,379.062 
	336.385,379.062 336.385,409.062 373.511,409.062 373.511,446.188 403.511,446.188 403.511,409.062 440.637,409.062 "/>
<g>
</g>
<g>
</g>
<g>
</g>
<g>
</g>
<g>
</g>
<g>
</g>
<g>
</g>
<g>
</g>
<g>
</g>
<g>
</g>
<g>
</g>
<g>
</g>
<g>
</g>
<g>
</g>
<g>
</g>
</svg>
