<svg height="512pt" viewBox="0 0 512 512" width="512pt" xmlns="http://www.w3.org/2000/svg"><path d="m512 256c0 141.386719-114.613281 256-256 256s-256-114.613281-256-256 114.613281-256 256-256 256 114.613281 256 256zm0 0" fill="#ff583e"/><path d="m509.679688 290.492188-118.691407-118.691407-2.4375 6.023438-64.28125-64.28125-206.246093 277.808593 120.015624 120.011719c5.933594.410157 11.921876.636719 17.960938.636719 129.6875 0 236.832031-96.4375 253.679688-221.507812zm0 0" fill="#f92814"/><path d="m302.585938 134.792969c68.546874 0 124.113281 55.570312 124.113281 124.117187 0 28.8125-9.820313 55.332032-26.292969 76.398438v88.8125l-60.085938-46.941406c-11.902343 3.792968-24.578124 5.847656-37.734374 5.847656-68.546876 0-124.117188-55.570313-124.117188-124.117188s55.570312-124.117187 124.117188-124.117187zm0 0" fill="#2d5396"/><path d="m302.585938 134.792969c-.347657 0-.691407.011719-1.039063.015625v248.203125c.347656.003906.691406.011719 1.039063.011719 13.15625 0 25.832031-2.050782 37.734374-5.847657l60.085938 46.941407v-88.8125c16.472656-21.0625 26.292969-47.582032 26.292969-76.394532 0-68.546875-55.566407-124.117187-124.113281-124.117187zm0 0" fill="#1b3b6b"/><g fill="#abddff"><path d="m226 71.988281c-75.664062 0-137 61.335938-137 137 0 31.804688 10.839844 61.078125 29.023438 84.328125v98.035156l66.324218-51.816406c13.136719 4.1875 27.128906 6.453125 41.652344 6.453125 75.664062 0 137-61.335937 137-137 0-75.660156-61.335938-137-137-137zm0 0"/><path d="m89 208.988281c0 31.804688 10.839844 61.078125 29.023438 84.328125v98.03125l66.324218-51.8125c12.941406 4.125 26.71875 6.375 41.007813 6.441406v-273.980468c-75.367188.347656-136.355469 61.542968-136.355469 136.992187zm0 0"/><path d="m226 71.988281c-.214844 0-.429688.007813-.644531.007813v273.980468c.214843 0 .429687.011719.644531.011719 75.664062 0 137-61.335937 137-137 0-75.664062-61.335938-137-137-137zm0 0"/></g><path d="m282.644531 198.648438h-30v-34.011719c0-14.691407-11.953125-26.644531-26.644531-26.644531s-26.644531 11.953124-26.644531 26.644531v34.011719h-30v-34.011719c0-31.234375 25.410156-56.644531 56.644531-56.644531s56.644531 25.410156 56.644531 56.644531zm0 0" fill="#4a7aff"/><path d="m226 107.992188c-.214844 0-.429688.015624-.644531.019531v30c.214843-.007813.429687-.019531.644531-.019531 14.691406 0 26.644531 11.953124 26.644531 26.644531v34.011719h30v-34.011719c0-31.234375-25.414062-56.644531-56.644531-56.644531zm0 0" fill="#2864f0"/><path d="m159.253906 188.03125h133.492188v94.433594h-133.492188zm0 0" fill="#2d5396"/><path d="m225.355469 188.03125h67.390625v94.433594h-67.390625zm0 0" fill="#1b3b6b"/><path d="m214.40625 218.367188h23.191406v41.730468h-23.191406zm0 0" fill="#4a98f7"/><path d="m225.355469 218.367188h12.238281v41.730468h-12.238281zm0 0" fill="#4a7aff"/></svg>